<?xml version="1.0" encoding="UTF-8"?>
<svg id="Layer_1" data-name="Layer 1" xmlns="http://www.w3.org/2000/svg" viewBox="0 0 16 16">
  <defs>
    <style>
      .cls-1 {
        stroke-width: 0px;
      }
    </style>
  </defs>
  <path class="cls-1" d="M3.85,6.88c.32-1.23,1.48-2.11,2.72-2.37h.02c.44-.11.57-.69.62-.92.05-.23.2-.83.57-.94l.22-.65.22.65c.37.11.51.71.57.94.05.23.17.8.62.92h.02c1.24.26,2.4,1.14,2.72,2.37l1.86,7.13-1.39-3c-.75-.61-1.18-1.32-1.4-2.22,0,0-.54-.21-.81-.98,0,0-.3-.31-.84-.29-.53.02-.96.62-.96,1.4,0,.25.9,3.6.9,3.6l-1.5-1.5-1.5,1.5s.9-3.35.9-3.6c0-.77-.43-1.38-.96-1.4-.53-.02-.84.29-.84.29-.27.77-.81.98-.81.98-.22.91-.66,1.62-1.4,2.22l-1.39,3,1.86-7.13h-.01Z"/>
</svg>